<mxfile host="Electron" modified="2024-06-22T08:59:36.996Z" agent="Mozilla/5.0 (Windows NT 10.0; Win64; x64) AppleWebKit/537.36 (KHTML, like Gecko) draw.io/24.6.1 Chrome/124.0.6367.207 Electron/30.0.6 Safari/537.36" etag="JfbAVHp46YU7pt0NFccL" version="24.6.1" type="device">
  <diagram id="C5RBs43oDa-KdzZeNtuy" name="ReinForce">
    <mxGraphModel dx="1925" dy="820" grid="1" gridSize="10" guides="1" tooltips="1" connect="1" arrows="1" fold="1" page="1" pageScale="1" pageWidth="827" pageHeight="1169" math="0" shadow="0">
      <root>
        <mxCell id="WIyWlLk6GJQsqaUBKTNV-0" />
        <mxCell id="WIyWlLk6GJQsqaUBKTNV-1" parent="WIyWlLk6GJQsqaUBKTNV-0" />
        <mxCell id="q2sqWTzhduMKxA5TMsE1-24" value="" style="rounded=0;whiteSpace=wrap;html=1;fillColor=none;dashed=1;" vertex="1" parent="WIyWlLk6GJQsqaUBKTNV-1">
          <mxGeometry x="100" y="360" width="250" height="610" as="geometry" />
        </mxCell>
        <mxCell id="q2sqWTzhduMKxA5TMsE1-37" style="edgeStyle=orthogonalEdgeStyle;rounded=0;orthogonalLoop=1;jettySize=auto;html=1;exitX=0.5;exitY=1;exitDx=0;exitDy=0;entryX=0.5;entryY=0;entryDx=0;entryDy=0;" edge="1" parent="WIyWlLk6GJQsqaUBKTNV-1" source="WIyWlLk6GJQsqaUBKTNV-3" target="q2sqWTzhduMKxA5TMsE1-1">
          <mxGeometry relative="1" as="geometry" />
        </mxCell>
        <mxCell id="WIyWlLk6GJQsqaUBKTNV-3" value="开始" style="rounded=1;whiteSpace=wrap;html=1;fontSize=12;glass=0;strokeWidth=1;shadow=0;" parent="WIyWlLk6GJQsqaUBKTNV-1" vertex="1">
          <mxGeometry x="160" y="80" width="120" height="40" as="geometry" />
        </mxCell>
        <mxCell id="q2sqWTzhduMKxA5TMsE1-36" style="edgeStyle=orthogonalEdgeStyle;rounded=0;orthogonalLoop=1;jettySize=auto;html=1;exitX=0.5;exitY=1;exitDx=0;exitDy=0;entryX=0.5;entryY=0;entryDx=0;entryDy=0;" edge="1" parent="WIyWlLk6GJQsqaUBKTNV-1" source="q2sqWTzhduMKxA5TMsE1-1" target="q2sqWTzhduMKxA5TMsE1-2">
          <mxGeometry relative="1" as="geometry" />
        </mxCell>
        <mxCell id="q2sqWTzhduMKxA5TMsE1-1" value="初始化环境、初始化网络" style="rounded=0;whiteSpace=wrap;html=1;" vertex="1" parent="WIyWlLk6GJQsqaUBKTNV-1">
          <mxGeometry x="160" y="160" width="120" height="60" as="geometry" />
        </mxCell>
        <mxCell id="q2sqWTzhduMKxA5TMsE1-22" style="edgeStyle=orthogonalEdgeStyle;rounded=0;orthogonalLoop=1;jettySize=auto;html=1;exitX=0.5;exitY=1;exitDx=0;exitDy=0;entryX=0.5;entryY=0;entryDx=0;entryDy=0;" edge="1" parent="WIyWlLk6GJQsqaUBKTNV-1" source="q2sqWTzhduMKxA5TMsE1-2" target="q2sqWTzhduMKxA5TMsE1-3">
          <mxGeometry relative="1" as="geometry" />
        </mxCell>
        <mxCell id="q2sqWTzhduMKxA5TMsE1-23" value="否" style="edgeLabel;html=1;align=center;verticalAlign=middle;resizable=0;points=[];" vertex="1" connectable="0" parent="q2sqWTzhduMKxA5TMsE1-22">
          <mxGeometry x="-0.2629" y="2" relative="1" as="geometry">
            <mxPoint as="offset" />
          </mxGeometry>
        </mxCell>
        <mxCell id="q2sqWTzhduMKxA5TMsE1-34" value="" style="edgeStyle=orthogonalEdgeStyle;rounded=0;orthogonalLoop=1;jettySize=auto;html=1;" edge="1" parent="WIyWlLk6GJQsqaUBKTNV-1" source="q2sqWTzhduMKxA5TMsE1-2" target="q2sqWTzhduMKxA5TMsE1-33">
          <mxGeometry relative="1" as="geometry" />
        </mxCell>
        <mxCell id="q2sqWTzhduMKxA5TMsE1-35" value="是" style="edgeLabel;html=1;align=center;verticalAlign=middle;resizable=0;points=[];" vertex="1" connectable="0" parent="q2sqWTzhduMKxA5TMsE1-34">
          <mxGeometry x="-0.0833" y="2" relative="1" as="geometry">
            <mxPoint as="offset" />
          </mxGeometry>
        </mxCell>
        <mxCell id="q2sqWTzhduMKxA5TMsE1-2" value="是否达到最大episode次数？" style="rhombus;whiteSpace=wrap;html=1;" vertex="1" parent="WIyWlLk6GJQsqaUBKTNV-1">
          <mxGeometry x="180" y="260" width="80" height="80" as="geometry" />
        </mxCell>
        <mxCell id="q2sqWTzhduMKxA5TMsE1-14" style="edgeStyle=orthogonalEdgeStyle;rounded=0;orthogonalLoop=1;jettySize=auto;html=1;exitX=0.5;exitY=1;exitDx=0;exitDy=0;" edge="1" parent="WIyWlLk6GJQsqaUBKTNV-1" source="q2sqWTzhduMKxA5TMsE1-3" target="q2sqWTzhduMKxA5TMsE1-4">
          <mxGeometry relative="1" as="geometry" />
        </mxCell>
        <mxCell id="q2sqWTzhduMKxA5TMsE1-3" value="新建trajectory" style="rounded=0;whiteSpace=wrap;html=1;" vertex="1" parent="WIyWlLk6GJQsqaUBKTNV-1">
          <mxGeometry x="160" y="390" width="120" height="60" as="geometry" />
        </mxCell>
        <mxCell id="q2sqWTzhduMKxA5TMsE1-15" style="edgeStyle=orthogonalEdgeStyle;rounded=0;orthogonalLoop=1;jettySize=auto;html=1;exitX=0.5;exitY=1;exitDx=0;exitDy=0;entryX=0.5;entryY=0;entryDx=0;entryDy=0;" edge="1" parent="WIyWlLk6GJQsqaUBKTNV-1" source="q2sqWTzhduMKxA5TMsE1-4" target="q2sqWTzhduMKxA5TMsE1-6">
          <mxGeometry relative="1" as="geometry" />
        </mxCell>
        <mxCell id="q2sqWTzhduMKxA5TMsE1-4" value="获得游戏初始状态s0" style="rounded=0;whiteSpace=wrap;html=1;" vertex="1" parent="WIyWlLk6GJQsqaUBKTNV-1">
          <mxGeometry x="160" y="480" width="120" height="60" as="geometry" />
        </mxCell>
        <mxCell id="q2sqWTzhduMKxA5TMsE1-19" style="edgeStyle=orthogonalEdgeStyle;rounded=0;orthogonalLoop=1;jettySize=auto;html=1;exitX=0.5;exitY=1;exitDx=0;exitDy=0;entryX=0.5;entryY=0;entryDx=0;entryDy=0;" edge="1" parent="WIyWlLk6GJQsqaUBKTNV-1" source="q2sqWTzhduMKxA5TMsE1-6" target="q2sqWTzhduMKxA5TMsE1-7">
          <mxGeometry relative="1" as="geometry" />
        </mxCell>
        <mxCell id="q2sqWTzhduMKxA5TMsE1-20" value="否" style="edgeLabel;html=1;align=center;verticalAlign=middle;resizable=0;points=[];" vertex="1" connectable="0" parent="q2sqWTzhduMKxA5TMsE1-19">
          <mxGeometry x="-0.26" relative="1" as="geometry">
            <mxPoint as="offset" />
          </mxGeometry>
        </mxCell>
        <mxCell id="q2sqWTzhduMKxA5TMsE1-29" style="edgeStyle=orthogonalEdgeStyle;rounded=0;orthogonalLoop=1;jettySize=auto;html=1;exitX=0;exitY=0.5;exitDx=0;exitDy=0;entryX=0.5;entryY=0;entryDx=0;entryDy=0;" edge="1" parent="WIyWlLk6GJQsqaUBKTNV-1" source="q2sqWTzhduMKxA5TMsE1-6" target="q2sqWTzhduMKxA5TMsE1-28">
          <mxGeometry relative="1" as="geometry">
            <Array as="points">
              <mxPoint x="130" y="610" />
              <mxPoint x="130" y="980" />
            </Array>
          </mxGeometry>
        </mxCell>
        <mxCell id="q2sqWTzhduMKxA5TMsE1-30" value="是" style="edgeLabel;html=1;align=center;verticalAlign=middle;resizable=0;points=[];" vertex="1" connectable="0" parent="q2sqWTzhduMKxA5TMsE1-29">
          <mxGeometry x="-0.9025" y="1" relative="1" as="geometry">
            <mxPoint as="offset" />
          </mxGeometry>
        </mxCell>
        <mxCell id="q2sqWTzhduMKxA5TMsE1-6" value="游戏是否结束？" style="rhombus;whiteSpace=wrap;html=1;" vertex="1" parent="WIyWlLk6GJQsqaUBKTNV-1">
          <mxGeometry x="180" y="570" width="80" height="80" as="geometry" />
        </mxCell>
        <mxCell id="q2sqWTzhduMKxA5TMsE1-7" value="根据状态和当前action概率分布，随机采样获得动作" style="rounded=0;whiteSpace=wrap;html=1;" vertex="1" parent="WIyWlLk6GJQsqaUBKTNV-1">
          <mxGeometry x="160" y="690" width="120" height="60" as="geometry" />
        </mxCell>
        <mxCell id="q2sqWTzhduMKxA5TMsE1-18" style="edgeStyle=orthogonalEdgeStyle;rounded=0;orthogonalLoop=1;jettySize=auto;html=1;exitX=0.5;exitY=1;exitDx=0;exitDy=0;entryX=0.5;entryY=0;entryDx=0;entryDy=0;" edge="1" parent="WIyWlLk6GJQsqaUBKTNV-1" source="q2sqWTzhduMKxA5TMsE1-9" target="q2sqWTzhduMKxA5TMsE1-10">
          <mxGeometry relative="1" as="geometry" />
        </mxCell>
        <mxCell id="q2sqWTzhduMKxA5TMsE1-9" value="根据动作采样，获得下一个状态、reward，游戏结束状态" style="rounded=0;whiteSpace=wrap;html=1;" vertex="1" parent="WIyWlLk6GJQsqaUBKTNV-1">
          <mxGeometry x="160" y="785" width="120" height="60" as="geometry" />
        </mxCell>
        <mxCell id="q2sqWTzhduMKxA5TMsE1-21" style="edgeStyle=orthogonalEdgeStyle;rounded=0;orthogonalLoop=1;jettySize=auto;html=1;exitX=0.5;exitY=1;exitDx=0;exitDy=0;entryX=1;entryY=0.5;entryDx=0;entryDy=0;" edge="1" parent="WIyWlLk6GJQsqaUBKTNV-1" source="q2sqWTzhduMKxA5TMsE1-10" target="q2sqWTzhduMKxA5TMsE1-6">
          <mxGeometry relative="1" as="geometry">
            <Array as="points">
              <mxPoint x="220" y="955" />
              <mxPoint x="320" y="955" />
              <mxPoint x="320" y="610" />
            </Array>
          </mxGeometry>
        </mxCell>
        <mxCell id="q2sqWTzhduMKxA5TMsE1-10" value="保存所有的变量（状态、动作、reward、下一状态、游戏结束状态、reward总和）" style="rounded=0;whiteSpace=wrap;html=1;" vertex="1" parent="WIyWlLk6GJQsqaUBKTNV-1">
          <mxGeometry x="160" y="875" width="120" height="60" as="geometry" />
        </mxCell>
        <mxCell id="q2sqWTzhduMKxA5TMsE1-17" style="edgeStyle=orthogonalEdgeStyle;rounded=0;orthogonalLoop=1;jettySize=auto;html=1;exitX=0.5;exitY=1;exitDx=0;exitDy=0;entryX=0.512;entryY=-0.053;entryDx=0;entryDy=0;entryPerimeter=0;" edge="1" parent="WIyWlLk6GJQsqaUBKTNV-1" source="q2sqWTzhduMKxA5TMsE1-7" target="q2sqWTzhduMKxA5TMsE1-9">
          <mxGeometry relative="1" as="geometry" />
        </mxCell>
        <mxCell id="q2sqWTzhduMKxA5TMsE1-25" value="1次rollout" style="text;html=1;align=center;verticalAlign=middle;whiteSpace=wrap;rounded=0;" vertex="1" parent="WIyWlLk6GJQsqaUBKTNV-1">
          <mxGeometry x="100" y="360" width="60" height="30" as="geometry" />
        </mxCell>
        <mxCell id="q2sqWTzhduMKxA5TMsE1-31" style="edgeStyle=orthogonalEdgeStyle;rounded=0;orthogonalLoop=1;jettySize=auto;html=1;exitX=0.5;exitY=1;exitDx=0;exitDy=0;entryX=1;entryY=0.5;entryDx=0;entryDy=0;" edge="1" parent="WIyWlLk6GJQsqaUBKTNV-1" source="q2sqWTzhduMKxA5TMsE1-28" target="q2sqWTzhduMKxA5TMsE1-2">
          <mxGeometry relative="1" as="geometry">
            <Array as="points">
              <mxPoint x="220" y="1080" />
              <mxPoint x="440" y="1080" />
              <mxPoint x="440" y="300" />
            </Array>
          </mxGeometry>
        </mxCell>
        <mxCell id="q2sqWTzhduMKxA5TMsE1-28" value="更新策略网络" style="rounded=0;whiteSpace=wrap;html=1;" vertex="1" parent="WIyWlLk6GJQsqaUBKTNV-1">
          <mxGeometry x="160" y="1000" width="120" height="60" as="geometry" />
        </mxCell>
        <mxCell id="q2sqWTzhduMKxA5TMsE1-33" value="结束" style="whiteSpace=wrap;html=1;" vertex="1" parent="WIyWlLk6GJQsqaUBKTNV-1">
          <mxGeometry x="-100" y="270" width="120" height="60" as="geometry" />
        </mxCell>
      </root>
    </mxGraphModel>
  </diagram>
</mxfile>
